<mxfile host="app.diagrams.net" modified="2023-09-11T23:41:03.518Z" agent="Mozilla/5.0 (Windows NT 10.0; Win64; x64) AppleWebKit/537.36 (KHTML, like Gecko) Chrome/116.0.0.0 Safari/537.36" etag="nHpBNBefGfb3XDeW9C2o" version="21.7.4" type="device">
  <diagram id="C5RBs43oDa-KdzZeNtuy" name="Page-1">
    <mxGraphModel dx="2138" dy="718" grid="1" gridSize="10" guides="1" tooltips="1" connect="1" arrows="1" fold="1" page="1" pageScale="1" pageWidth="827" pageHeight="1169" math="0" shadow="0">
      <root>
        <mxCell id="WIyWlLk6GJQsqaUBKTNV-0" />
        <mxCell id="WIyWlLk6GJQsqaUBKTNV-1" parent="WIyWlLk6GJQsqaUBKTNV-0" />
        <mxCell id="5C9xTrscQxAESrCp_Ek5-8" style="edgeStyle=orthogonalEdgeStyle;rounded=0;orthogonalLoop=1;jettySize=auto;html=1;entryX=0.589;entryY=1;entryDx=0;entryDy=0;exitX=1.002;exitY=0.19;exitDx=0;exitDy=0;exitPerimeter=0;entryPerimeter=0;" parent="WIyWlLk6GJQsqaUBKTNV-1" source="5C9xTrscQxAESrCp_Ek5-7" target="2ptb13SN9jdreT7rThBw-3" edge="1">
          <mxGeometry relative="1" as="geometry">
            <mxPoint x="267.9200000000001" y="178.55999999999995" as="targetPoint" />
            <Array as="points">
              <mxPoint x="712" y="537" />
            </Array>
          </mxGeometry>
        </mxCell>
        <mxCell id="2ptb13SN9jdreT7rThBw-5" style="edgeStyle=orthogonalEdgeStyle;rounded=0;orthogonalLoop=1;jettySize=auto;html=1;entryX=0.873;entryY=1.027;entryDx=0;entryDy=0;entryPerimeter=0;endArrow=none;endFill=0;endSize=16;" edge="1" parent="WIyWlLk6GJQsqaUBKTNV-1" source="5C9xTrscQxAESrCp_Ek5-4" target="5C9xTrscQxAESrCp_Ek5-12">
          <mxGeometry relative="1" as="geometry" />
        </mxCell>
        <mxCell id="5C9xTrscQxAESrCp_Ek5-4" value="Cliente" style="swimlane;fontStyle=1;align=center;verticalAlign=top;childLayout=stackLayout;horizontal=1;startSize=26;horizontalStack=0;resizeParent=1;resizeParentMax=0;resizeLast=0;collapsible=1;marginBottom=0;whiteSpace=wrap;html=1;" parent="WIyWlLk6GJQsqaUBKTNV-1" vertex="1">
          <mxGeometry x="20" y="370" width="555" height="248" as="geometry" />
        </mxCell>
        <mxCell id="5C9xTrscQxAESrCp_Ek5-5" value="- rg: String&lt;br style=&quot;border-color: var(--border-color);&quot;&gt;- cpf: String&lt;br style=&quot;border-color: var(--border-color);&quot;&gt;- nome: String&lt;br style=&quot;border-color: var(--border-color);&quot;&gt;- endereco: String&lt;br&gt;- profissao: String&lt;br&gt;- entidadesEmpregadoras: List&amp;lt;EntidadeEmpregadora&amp;gt;&lt;br&gt;- rendimentos: double[]" style="text;strokeColor=none;fillColor=none;align=left;verticalAlign=top;spacingLeft=4;spacingRight=4;overflow=hidden;rotatable=0;points=[[0,0.5],[1,0.5]];portConstraint=eastwest;whiteSpace=wrap;html=1;" parent="5C9xTrscQxAESrCp_Ek5-4" vertex="1">
          <mxGeometry y="26" width="555" height="114" as="geometry" />
        </mxCell>
        <mxCell id="5C9xTrscQxAESrCp_Ek5-6" value="" style="line;strokeWidth=1;fillColor=none;align=left;verticalAlign=middle;spacingTop=-1;spacingLeft=3;spacingRight=3;rotatable=0;labelPosition=right;points=[];portConstraint=eastwest;strokeColor=inherit;" parent="5C9xTrscQxAESrCp_Ek5-4" vertex="1">
          <mxGeometry y="140" width="555" height="8" as="geometry" />
        </mxCell>
        <mxCell id="5C9xTrscQxAESrCp_Ek5-7" value="+ efetuarCadastro(): boolean&lt;br&gt;+ pedirAluguel(): void&lt;br&gt;+ cancelarPedido(): void&lt;br&gt;+ consultarPedido(): void&lt;br&gt;+ adicionarEntidadeEmpregadora(EntidadeEmpregadora): entidadeEmpregadora" style="text;strokeColor=none;fillColor=none;align=left;verticalAlign=top;spacingLeft=4;spacingRight=4;overflow=hidden;rotatable=0;points=[[0,0.5],[1,0.5]];portConstraint=eastwest;whiteSpace=wrap;html=1;" parent="5C9xTrscQxAESrCp_Ek5-4" vertex="1">
          <mxGeometry y="148" width="555" height="100" as="geometry" />
        </mxCell>
        <mxCell id="2ptb13SN9jdreT7rThBw-4" style="edgeStyle=orthogonalEdgeStyle;rounded=0;orthogonalLoop=1;jettySize=auto;html=1;endArrow=none;endFill=0;endSize=18;exitX=0.504;exitY=1.131;exitDx=0;exitDy=0;exitPerimeter=0;entryX=1;entryY=0.5;entryDx=0;entryDy=0;" edge="1" parent="WIyWlLk6GJQsqaUBKTNV-1" source="5C9xTrscQxAESrCp_Ek5-12" target="5C9xTrscQxAESrCp_Ek5-24">
          <mxGeometry relative="1" as="geometry">
            <mxPoint x="90" y="340" as="targetPoint" />
            <Array as="points">
              <mxPoint x="361" y="200" />
              <mxPoint x="60" y="200" />
              <mxPoint x="60" y="304" />
            </Array>
          </mxGeometry>
        </mxCell>
        <mxCell id="5C9xTrscQxAESrCp_Ek5-9" value="Agente" style="swimlane;fontStyle=1;align=center;verticalAlign=top;childLayout=stackLayout;horizontal=1;startSize=26;horizontalStack=0;resizeParent=1;resizeParentMax=0;resizeLast=0;collapsible=1;marginBottom=0;whiteSpace=wrap;html=1;" parent="WIyWlLk6GJQsqaUBKTNV-1" vertex="1">
          <mxGeometry x="250" y="80" width="220" height="86" as="geometry" />
        </mxCell>
        <mxCell id="5C9xTrscQxAESrCp_Ek5-10" value="- cnpj: String" style="text;strokeColor=none;fillColor=none;align=left;verticalAlign=top;spacingLeft=4;spacingRight=4;overflow=hidden;rotatable=0;points=[[0,0.5],[1,0.5]];portConstraint=eastwest;whiteSpace=wrap;html=1;" parent="5C9xTrscQxAESrCp_Ek5-9" vertex="1">
          <mxGeometry y="26" width="220" height="26" as="geometry" />
        </mxCell>
        <mxCell id="5C9xTrscQxAESrCp_Ek5-11" value="" style="line;strokeWidth=1;fillColor=none;align=left;verticalAlign=middle;spacingTop=-1;spacingLeft=3;spacingRight=3;rotatable=0;labelPosition=right;points=[];portConstraint=eastwest;strokeColor=inherit;" parent="5C9xTrscQxAESrCp_Ek5-9" vertex="1">
          <mxGeometry y="52" width="220" height="8" as="geometry" />
        </mxCell>
        <mxCell id="5C9xTrscQxAESrCp_Ek5-12" value="+ avaliarPedido(): boolean" style="text;strokeColor=none;fillColor=none;align=left;verticalAlign=top;spacingLeft=4;spacingRight=4;overflow=hidden;rotatable=0;points=[[0,0.5],[1,0.5]];portConstraint=eastwest;whiteSpace=wrap;html=1;" parent="5C9xTrscQxAESrCp_Ek5-9" vertex="1">
          <mxGeometry y="60" width="220" height="26" as="geometry" />
        </mxCell>
        <mxCell id="5C9xTrscQxAESrCp_Ek5-13" style="edgeStyle=orthogonalEdgeStyle;rounded=0;orthogonalLoop=1;jettySize=auto;html=1;exitX=1.014;exitY=0.808;exitDx=0;exitDy=0;exitPerimeter=0;" parent="WIyWlLk6GJQsqaUBKTNV-1" source="5C9xTrscQxAESrCp_Ek5-10" target="2ptb13SN9jdreT7rThBw-3" edge="1">
          <mxGeometry relative="1" as="geometry">
            <mxPoint x="480" y="230" as="sourcePoint" />
            <mxPoint x="722.5" y="253.01" as="targetPoint" />
            <Array as="points">
              <mxPoint x="695" y="127" />
            </Array>
          </mxGeometry>
        </mxCell>
        <mxCell id="5C9xTrscQxAESrCp_Ek5-14" value="EntidadeEmpregadora" style="swimlane;fontStyle=1;align=center;verticalAlign=top;childLayout=stackLayout;horizontal=1;startSize=26;horizontalStack=0;resizeParent=1;resizeParentMax=0;resizeLast=0;collapsible=1;marginBottom=0;whiteSpace=wrap;html=1;" parent="WIyWlLk6GJQsqaUBKTNV-1" vertex="1">
          <mxGeometry x="200" y="670" width="160" height="78" as="geometry" />
        </mxCell>
        <mxCell id="5C9xTrscQxAESrCp_Ek5-15" value="- nome: String&lt;br&gt;- cnpj: String" style="text;strokeColor=none;fillColor=none;align=left;verticalAlign=top;spacingLeft=4;spacingRight=4;overflow=hidden;rotatable=0;points=[[0,0.5],[1,0.5]];portConstraint=eastwest;whiteSpace=wrap;html=1;" parent="5C9xTrscQxAESrCp_Ek5-14" vertex="1">
          <mxGeometry y="26" width="160" height="44" as="geometry" />
        </mxCell>
        <mxCell id="5C9xTrscQxAESrCp_Ek5-16" value="" style="line;strokeWidth=1;fillColor=none;align=left;verticalAlign=middle;spacingTop=-1;spacingLeft=3;spacingRight=3;rotatable=0;labelPosition=right;points=[];portConstraint=eastwest;strokeColor=inherit;" parent="5C9xTrscQxAESrCp_Ek5-14" vertex="1">
          <mxGeometry y="70" width="160" height="8" as="geometry" />
        </mxCell>
        <mxCell id="5C9xTrscQxAESrCp_Ek5-19" value="Veiculo" style="swimlane;fontStyle=1;align=center;verticalAlign=top;childLayout=stackLayout;horizontal=1;startSize=26;horizontalStack=0;resizeParent=1;resizeParentMax=0;resizeLast=0;collapsible=1;marginBottom=0;whiteSpace=wrap;html=1;" parent="WIyWlLk6GJQsqaUBKTNV-1" vertex="1">
          <mxGeometry x="-290" y="20" width="366" height="128" as="geometry" />
        </mxCell>
        <mxCell id="5C9xTrscQxAESrCp_Ek5-20" value="- matricula: String&lt;br&gt;- ano: int&lt;br&gt;- marca: String&lt;br&gt;- modelo: String&lt;br&gt;- placa: String" style="text;strokeColor=none;fillColor=none;align=left;verticalAlign=top;spacingLeft=4;spacingRight=4;overflow=hidden;rotatable=0;points=[[0,0.5],[1,0.5]];portConstraint=eastwest;whiteSpace=wrap;html=1;" parent="5C9xTrscQxAESrCp_Ek5-19" vertex="1">
          <mxGeometry y="26" width="366" height="94" as="geometry" />
        </mxCell>
        <mxCell id="5C9xTrscQxAESrCp_Ek5-21" value="" style="line;strokeWidth=1;fillColor=none;align=left;verticalAlign=middle;spacingTop=-1;spacingLeft=3;spacingRight=3;rotatable=0;labelPosition=right;points=[];portConstraint=eastwest;strokeColor=inherit;" parent="5C9xTrscQxAESrCp_Ek5-19" vertex="1">
          <mxGeometry y="120" width="366" height="8" as="geometry" />
        </mxCell>
        <mxCell id="5C9xTrscQxAESrCp_Ek5-23" value="ContratoAluguel" style="swimlane;fontStyle=1;align=center;verticalAlign=top;childLayout=stackLayout;horizontal=1;startSize=26;horizontalStack=0;resizeParent=1;resizeParentMax=0;resizeLast=0;collapsible=1;marginBottom=0;whiteSpace=wrap;html=1;" parent="WIyWlLk6GJQsqaUBKTNV-1" vertex="1">
          <mxGeometry x="-260" y="256" width="210" height="98" as="geometry" />
        </mxCell>
        <mxCell id="5C9xTrscQxAESrCp_Ek5-24" value="- cliente: Cliente&lt;br&gt;- veiculo: Veiculo&lt;br&gt;- tipoContrato: String" style="text;strokeColor=none;fillColor=none;align=left;verticalAlign=top;spacingLeft=4;spacingRight=4;overflow=hidden;rotatable=0;points=[[0,0.5],[1,0.5]];portConstraint=eastwest;whiteSpace=wrap;html=1;" parent="5C9xTrscQxAESrCp_Ek5-23" vertex="1">
          <mxGeometry y="26" width="210" height="44" as="geometry" />
        </mxCell>
        <mxCell id="5C9xTrscQxAESrCp_Ek5-25" value="" style="line;strokeWidth=1;fillColor=none;align=left;verticalAlign=middle;spacingTop=-1;spacingLeft=3;spacingRight=3;rotatable=0;labelPosition=right;points=[];portConstraint=eastwest;strokeColor=inherit;" parent="5C9xTrscQxAESrCp_Ek5-23" vertex="1">
          <mxGeometry y="70" width="210" height="28" as="geometry" />
        </mxCell>
        <mxCell id="5C9xTrscQxAESrCp_Ek5-28" value="" style="endArrow=none;endFill=0;endSize=24;html=1;rounded=0;entryX=0.5;entryY=0;entryDx=0;entryDy=0;exitX=0.365;exitY=1.132;exitDx=0;exitDy=0;exitPerimeter=0;" parent="WIyWlLk6GJQsqaUBKTNV-1" source="5C9xTrscQxAESrCp_Ek5-21" target="5C9xTrscQxAESrCp_Ek5-23" edge="1">
          <mxGeometry width="160" relative="1" as="geometry">
            <mxPoint x="-155" y="150" as="sourcePoint" />
            <mxPoint x="50" y="220" as="targetPoint" />
          </mxGeometry>
        </mxCell>
        <mxCell id="5C9xTrscQxAESrCp_Ek5-27" value="" style="endArrow=none;endFill=0;endSize=24;html=1;rounded=0;entryX=0.5;entryY=1;entryDx=0;entryDy=0;exitX=-0.002;exitY=0.6;exitDx=0;exitDy=0;exitPerimeter=0;" parent="WIyWlLk6GJQsqaUBKTNV-1" source="5C9xTrscQxAESrCp_Ek5-5" target="5C9xTrscQxAESrCp_Ek5-23" edge="1">
          <mxGeometry width="160" relative="1" as="geometry">
            <mxPoint x="30" y="464" as="sourcePoint" />
            <mxPoint x="-170" y="360" as="targetPoint" />
            <Array as="points">
              <mxPoint x="-155" y="464" />
            </Array>
          </mxGeometry>
        </mxCell>
        <mxCell id="2ptb13SN9jdreT7rThBw-3" value="&lt;p style=&quot;margin:0px;margin-top:4px;text-align:center;&quot;&gt;&lt;i&gt;&amp;lt;&amp;lt;Interface&amp;gt;&amp;gt;&lt;/i&gt;&lt;br&gt;&lt;b&gt;IModifica&lt;/b&gt;&lt;/p&gt;&lt;hr size=&quot;1&quot;&gt;&lt;p style=&quot;margin:0px;margin-left:4px;&quot;&gt;+modificarPedidos(): boolean&lt;br&gt;&lt;/p&gt;" style="verticalAlign=top;align=left;overflow=fill;fontSize=12;fontFamily=Helvetica;html=1;whiteSpace=wrap;" vertex="1" parent="WIyWlLk6GJQsqaUBKTNV-1">
          <mxGeometry x="600" y="270" width="190" height="70" as="geometry" />
        </mxCell>
        <mxCell id="5C9xTrscQxAESrCp_Ek5-18" value="" style="endArrow=diamondThin;endFill=1;endSize=24;html=1;rounded=0;exitX=0.608;exitY=-0.065;exitDx=0;exitDy=0;exitPerimeter=0;entryX=0.498;entryY=1.04;entryDx=0;entryDy=0;entryPerimeter=0;" parent="WIyWlLk6GJQsqaUBKTNV-1" source="5C9xTrscQxAESrCp_Ek5-14" target="5C9xTrscQxAESrCp_Ek5-7" edge="1">
          <mxGeometry width="160" relative="1" as="geometry">
            <mxPoint x="210" y="500" as="sourcePoint" />
            <mxPoint x="370" y="610" as="targetPoint" />
            <Array as="points" />
          </mxGeometry>
        </mxCell>
      </root>
    </mxGraphModel>
  </diagram>
</mxfile>
